<mxfile host="app.diagrams.net" modified="2021-04-05T14:26:10.948Z" agent="5.0 (Windows NT 10.0; Win64; x64) AppleWebKit/537.36 (KHTML, like Gecko) Chrome/89.0.4389.114 Safari/537.36" etag="DRIkhiNVa_xKwkX52rSo" version="14.5.7" type="github">
  <diagram id="9valwQFgTiBSgvuS-UiV" name="Page-1">
    <mxGraphModel dx="868" dy="482" grid="1" gridSize="10" guides="1" tooltips="1" connect="1" arrows="1" fold="1" page="1" pageScale="1" pageWidth="850" pageHeight="1100" math="0" shadow="0">
      <root>
        <mxCell id="0" />
        <mxCell id="1" parent="0" />
        <mxCell id="IIF8usJQDjJgJVnFaX2O-1" value="Input 1" style="ellipse;whiteSpace=wrap;html=1;aspect=fixed;" vertex="1" parent="1">
          <mxGeometry x="210" y="70" width="50" height="50" as="geometry" />
        </mxCell>
        <mxCell id="IIF8usJQDjJgJVnFaX2O-2" value="Input 2" style="ellipse;whiteSpace=wrap;html=1;aspect=fixed;" vertex="1" parent="1">
          <mxGeometry x="210" y="140" width="50" height="50" as="geometry" />
        </mxCell>
        <mxCell id="IIF8usJQDjJgJVnFaX2O-3" value="Input 3" style="ellipse;whiteSpace=wrap;html=1;aspect=fixed;" vertex="1" parent="1">
          <mxGeometry x="210" y="210" width="50" height="50" as="geometry" />
        </mxCell>
        <mxCell id="IIF8usJQDjJgJVnFaX2O-4" value="&lt;a href=&quot;https://pt.wikipedia.org/wiki/%CE%A3&quot; style=&quot;font-family: &amp;#34;arial&amp;#34; , sans-serif ; text-align: left ; background-color: rgb(255 , 255 , 255)&quot;&gt;&lt;h3 class=&quot;LC20lb DKV0Md&quot; style=&quot;font-weight: normal ; margin: 0px 0px 3px ; padding: 5px 0px 0px ; display: inline-block ; line-height: 1.3&quot;&gt;&lt;font color=&quot;#000000&quot; style=&quot;font-size: 36px&quot;&gt;Î£&lt;/font&gt;&lt;/h3&gt;&lt;/a&gt;" style="ellipse;whiteSpace=wrap;html=1;aspect=fixed;" vertex="1" parent="1">
          <mxGeometry x="400" y="140" width="50" height="50" as="geometry" />
        </mxCell>
        <mxCell id="IIF8usJQDjJgJVnFaX2O-5" value="" style="endArrow=classic;html=1;" edge="1" parent="1" source="IIF8usJQDjJgJVnFaX2O-1" target="IIF8usJQDjJgJVnFaX2O-4">
          <mxGeometry width="50" height="50" relative="1" as="geometry">
            <mxPoint x="400" y="160" as="sourcePoint" />
            <mxPoint x="450" y="110" as="targetPoint" />
          </mxGeometry>
        </mxCell>
        <mxCell id="IIF8usJQDjJgJVnFaX2O-6" value="" style="endArrow=classic;html=1;" edge="1" parent="1" source="IIF8usJQDjJgJVnFaX2O-2" target="IIF8usJQDjJgJVnFaX2O-4">
          <mxGeometry width="50" height="50" relative="1" as="geometry">
            <mxPoint x="400" y="160" as="sourcePoint" />
            <mxPoint x="450" y="110" as="targetPoint" />
          </mxGeometry>
        </mxCell>
        <mxCell id="IIF8usJQDjJgJVnFaX2O-7" value="" style="endArrow=classic;html=1;" edge="1" parent="1" source="IIF8usJQDjJgJVnFaX2O-3" target="IIF8usJQDjJgJVnFaX2O-4">
          <mxGeometry width="50" height="50" relative="1" as="geometry">
            <mxPoint x="400" y="160" as="sourcePoint" />
            <mxPoint x="450" y="110" as="targetPoint" />
          </mxGeometry>
        </mxCell>
        <mxCell id="IIF8usJQDjJgJVnFaX2O-8" value="&lt;font style=&quot;font-size: 16px&quot; face=&quot;Courier New&quot;&gt;W&lt;/font&gt;&lt;sub&gt;&lt;font style=&quot;font-size: 10px&quot;&gt;1&lt;/font&gt;&lt;/sub&gt;" style="text;html=1;align=center;verticalAlign=middle;resizable=0;points=[];autosize=1;fontSize=12;" vertex="1" parent="1">
          <mxGeometry x="305" y="107" width="30" height="20" as="geometry" />
        </mxCell>
        <mxCell id="IIF8usJQDjJgJVnFaX2O-11" value="&lt;font style=&quot;font-size: 16px&quot; face=&quot;Courier New&quot;&gt;W&lt;/font&gt;&lt;sub&gt;&lt;font style=&quot;font-size: 10px&quot;&gt;2&lt;/font&gt;&lt;/sub&gt;" style="text;html=1;align=center;verticalAlign=middle;resizable=0;points=[];autosize=1;fontSize=12;" vertex="1" parent="1">
          <mxGeometry x="305" y="146" width="30" height="20" as="geometry" />
        </mxCell>
        <mxCell id="IIF8usJQDjJgJVnFaX2O-12" value="&lt;font style=&quot;font-size: 16px&quot; face=&quot;Courier New&quot;&gt;W&lt;/font&gt;&lt;sub&gt;&lt;font style=&quot;font-size: 10px&quot;&gt;3&lt;/font&gt;&lt;/sub&gt;" style="text;html=1;align=center;verticalAlign=middle;resizable=0;points=[];autosize=1;fontSize=12;" vertex="1" parent="1">
          <mxGeometry x="305" y="182" width="30" height="20" as="geometry" />
        </mxCell>
        <mxCell id="IIF8usJQDjJgJVnFaX2O-16" value="" style="ellipse;whiteSpace=wrap;html=1;aspect=fixed;" vertex="1" parent="1">
          <mxGeometry x="500" y="140" width="50" height="50" as="geometry" />
        </mxCell>
        <mxCell id="IIF8usJQDjJgJVnFaX2O-20" value="" style="endArrow=none;html=1;fontSize=12;rounded=0;" edge="1" parent="1">
          <mxGeometry width="50" height="50" relative="1" as="geometry">
            <mxPoint x="510" y="181" as="sourcePoint" />
            <mxPoint x="540" y="151" as="targetPoint" />
            <Array as="points">
              <mxPoint x="524" y="181" />
              <mxPoint x="524" y="151" />
            </Array>
          </mxGeometry>
        </mxCell>
        <mxCell id="IIF8usJQDjJgJVnFaX2O-22" value="" style="endArrow=classic;html=1;fontSize=12;" edge="1" parent="1" source="IIF8usJQDjJgJVnFaX2O-4" target="IIF8usJQDjJgJVnFaX2O-16">
          <mxGeometry width="50" height="50" relative="1" as="geometry">
            <mxPoint x="400" y="170" as="sourcePoint" />
            <mxPoint x="450" y="120" as="targetPoint" />
          </mxGeometry>
        </mxCell>
        <mxCell id="IIF8usJQDjJgJVnFaX2O-23" value="" style="endArrow=classic;html=1;fontSize=12;" edge="1" parent="1" source="IIF8usJQDjJgJVnFaX2O-16">
          <mxGeometry width="50" height="50" relative="1" as="geometry">
            <mxPoint x="400" y="170" as="sourcePoint" />
            <mxPoint x="600" y="165" as="targetPoint" />
          </mxGeometry>
        </mxCell>
        <mxCell id="IIF8usJQDjJgJVnFaX2O-24" value="&lt;font style=&quot;font-size: 13px&quot;&gt;&lt;b&gt;Output&lt;/b&gt;&lt;/font&gt;" style="text;html=1;align=center;verticalAlign=middle;resizable=0;points=[];autosize=1;fontSize=12;" vertex="1" parent="1">
          <mxGeometry x="596" y="155" width="60" height="20" as="geometry" />
        </mxCell>
      </root>
    </mxGraphModel>
  </diagram>
</mxfile>
